<svg xmlns="http://www.w3.org/2000/svg" width="202" height="44" viewBox="0 0 202 44" class="site-logo"><defs><linearGradient id="gps_horizontal_black-text_rgb-a" x1="32.354%" x2="84.38%" y1="63.61%" y2="23.441%"><stop offset="0%" stop-color="#33F"></stop><stop offset="100%" stop-color="#0CF"></stop></linearGradient><linearGradient id="gps_horizontal_black-text_rgb-b" x1="-6.34%" x2="92.889%" y1="77.265%" y2="9.754%"><stop offset="0%" stop-color="#1E84FD"></stop><stop offset="10.89%" stop-color="#1995FD"></stop><stop offset="29.38%" stop-color="#12ADFD"></stop><stop offset="49.22%" stop-color="#0DBDFD"></stop><stop offset="71.2%" stop-color="#0AC7FD"></stop><stop offset="99.48%" stop-color="#09CAFD"></stop></linearGradient></defs><g class="guidepoint"><path d="M6.51671459,9.23705556e-14 C8.62239396,9.23705556e-14 10.1653487,0.378223284 11.1637311,1.13466985 C12.1621136,1.89111642 12.7066858,3.1518607 12.7974479,4.89889206 L9.83860532,5.09700902 C9.74784328,4.12443486 9.47555715,3.42202019 9.05805176,2.98976501 C8.62239396,2.55750983 7.78738318,2.34138224 6.534867,2.34138224 C5.13713156,2.34138224 4.17505392,2.62955236 3.68493889,3.2058926 C3.19482387,3.78223284 2.94069015,4.64674321 2.94069015,5.78141306 L2.94069015,10.3200925 C2.94069015,11.4367517 3.21297628,12.2832514 3.75754853,12.841581 C4.30212078,13.3999106 5.31865564,13.6880808 6.78900072,13.6880808 C8.11412653,13.6880808 8.98544213,13.3999106 9.42109993,12.8055598 C9.85675773,12.2112089 10.0564342,11.3286879 10.0382818,10.1039649 L6.38964774,10.1039649 L6.38964774,7.76258264 L12.9971244,7.76258264 L12.9971244,10.4281563 C12.9971244,12.1391664 12.4888569,13.4899638 11.4541697,14.5165699 C10.4376348,15.5251653 8.82207045,16.0474736 6.62562904,16.0474736 C4.41103523,16.0474736 2.74101366,15.5611865 1.65186916,14.5706018 C0.562724659,13.580017 2.55973021e-12,12.2472302 2.55973021e-12,10.5362201 L2.55973021e-12,5.60130673 C2.55973021e-12,3.872286 0.526419842,2.52148856 1.59741193,1.51289314 C2.66840403,0.504297712 4.30212078,9.23705556e-14 6.51671459,9.23705556e-14 Z M20.094716,0.198116958 L20.094716,10.0319223 C20.094716,11.274656 20.3306973,12.1751876 20.80266,12.7335172 C21.2746226,13.2918468 22.182243,13.580017 23.5436736,13.580017 C24.9051042,13.580017 25.8308771,13.2918468 26.2846873,12.7335172 C26.7566499,12.1751876 26.9926312,11.2566454 26.9926312,10.0319223 L26.9926312,0.198116958 L29.9514738,0.198116958 L29.9514738,10.2300393 C29.9514738,12.157177 29.4432063,13.6160382 28.4448239,14.5706018 C27.4464414,15.5611865 25.8127247,16.0474736 23.5436736,16.0474736 C21.292775,16.0474736 19.6590582,15.5611865 18.6425234,14.5886124 C17.6441409,13.6160382 17.1358735,12.1751876 17.1358735,10.2480499 L17.1358735,0.198116958 L20.094716,0.198116958 Z M96.8975557,9.23705556e-14 C99.0032351,9.23705556e-14 100.582495,0.48628708 101.671639,1.44085061 C102.742631,2.39541413 103.287203,3.78223284 103.287203,5.60130673 L103.287203,10.5182094 C103.287203,12.3012621 102.742631,13.6700701 101.653487,14.606623 C100.564342,15.5611865 98.9850827,16.0474736 96.8794033,16.0474736 C94.7737239,16.0474736 93.1944644,15.5791972 92.1053199,14.6246337 C91.0161754,13.6880808 90.4716032,12.3192727 90.4716032,10.5362201 L90.4716032,5.60130673 C90.4716032,3.78223284 91.0161754,2.41342477 92.1053199,1.44085061 C93.1944644,0.48628708 94.7918763,9.23705556e-14 96.8975557,9.23705556e-14 Z M49.1385694,0.198116958 C51.2442487,0.198116958 52.8779655,0.720425303 54.057872,1.74703136 C55.2377786,2.79164805 55.8186556,4.16045613 55.8186556,5.88947685 L55.8186556,10.2300393 C55.8186556,11.9410494 55.2196262,13.2918468 54.0397196,14.3184529 C52.8598131,15.3270483 51.2079439,15.8493567 49.120417,15.8493567 L43.0030554,15.8493567 L43.0030554,0.198116958 L49.1385694,0.198116958 Z M81.4498562,0.198116958 C83.1380302,0.198116958 84.4268512,0.576340243 85.352624,1.33278681 C86.2783968,2.08923338 86.732207,3.1518607 86.732207,4.53867941 L86.732207,6.57388089 C86.732207,7.92467833 86.2783968,8.95128439 85.352624,9.68972033 C84.4268512,10.4281563 83.1380302,10.7883689 81.4498562,10.7883689 L78.2550324,10.7883689 L78.2550324,15.8493567 L75.2961898,15.8493567 L75.2961898,0.198116958 L81.4498562,0.198116958 Z M119.878505,0.198116958 L126.014019,12.7515279 L126.014019,0.198116958 L128.609813,0.198116958 L128.609813,15.831346 L124.489216,15.831346 L124.489216,15.8493567 L118.40816,3.44003082 L118.40816,15.8493567 L115.794213,15.8493567 L115.794213,0.198116958 L119.878505,0.198116958 Z M144.747304,0.216127591 L144.747304,2.55750983 L139.828001,2.55750983 L139.828001,15.8493567 L136.869159,15.8493567 L136.869159,2.55750983 L131.949856,2.55750983 L131.949856,0.216127591 L144.747304,0.216127591 Z M71.1755931,0.198116958 L71.1755931,2.53949919 L63.0977714,2.53949919 L63.0977714,6.2496895 L70.195363,6.2496895 L70.195363,8.59107174 L63.0977714,8.59107174 L63.0977714,13.4719532 L71.1755931,13.4719532 L71.1755931,15.8133354 L60.1389288,15.8133354 L60.1389288,0.198116958 L71.1755931,0.198116958 Z M37.9566858,0.270159489 L37.9566858,15.7773141 L34.9978433,15.7773141 L34.9978433,0.270159489 L37.9566858,0.270159489 Z M110.602624,0.270159489 L110.602624,15.7773141 L107.643781,15.7773141 L107.643781,0.270159489 L110.602624,0.270159489 Z M96.8794033,2.35939287 C95.6268871,2.35939287 94.7374191,2.62955236 94.2109993,3.13385007 C93.6845794,3.65615841 93.4304457,4.53867941 93.4304457,5.79942369 L93.4304457,10.3381031 C93.4304457,11.5448155 93.6845794,12.4093258 94.2109993,12.9316342 C94.7192667,13.4359319 95.6087347,13.6880808 96.8794033,13.6880808 C98.1319195,13.6880808 99.0213875,13.4359319 99.5478073,12.9136236 C100.074227,12.3913152 100.328361,11.5268049 100.328361,10.3200925 L100.328361,5.79942369 C100.328361,4.55669004 100.074227,3.65615841 99.5478073,3.13385007 C99.0213875,2.61154172 98.1319195,2.35939287 96.8794033,2.35939287 Z M48.9025881,2.55750983 L45.9437455,2.55750983 L45.9437455,13.4899638 L48.9025881,13.4899638 C50.3547807,13.4899638 51.3713156,13.183783 51.9521927,12.5894322 C52.5512221,11.9950813 52.8416607,11.1305709 52.8416607,10.0319223 L52.8416607,6.08759381 C52.8416607,4.98894522 52.5512221,4.10642423 51.9521927,3.49406272 C51.3531632,2.86369058 50.3366283,2.55750983 48.9025881,2.55750983 Z M81.1049605,2.52148856 L78.2550324,2.52148856 L78.2550324,8.42897605 L81.1049605,8.42897605 C82.0488857,8.42897605 82.7386772,8.26688035 83.1380302,7.92467833 C83.5555356,7.60048695 83.7552121,7.04215734 83.7552121,6.2496895 L83.7552121,4.73679637 C83.7552121,3.96233917 83.5555356,3.38599892 83.1380302,3.04379691 C82.7205248,2.70159489 82.0488857,2.52148856 81.1049605,2.52148856 Z" transform="translate(57.253 8.537)"></path></g><g class="security"><path d="M28.7897196,-3.05533376e-13 C29.8788641,-3.05533376e-13 30.6957225,0.216127591 31.2402948,0.666393405 C31.784867,1.11665922 32.0934579,1.81907389 32.1297628,2.79164805 L30.6231129,2.89971185 C30.5686556,2.25132907 30.405284,1.80106326 30.1329978,1.56692503 C29.8425593,1.33278681 29.3887491,1.20671238 28.7715672,1.20671238 C28.0817757,1.20671238 27.5916607,1.33278681 27.3012221,1.6029463 C27.0107836,1.87310579 26.8655643,2.3233716 26.8655643,2.95374374 L26.8655643,5.25910471 C26.8655643,5.88947685 27.0107836,6.32173204 27.3012221,6.57388089 C27.5916607,6.82602975 28.0817757,6.97011481 28.7715672,6.97011481 C29.4250539,6.97011481 29.8788641,6.84404038 30.1693027,6.59189152 C30.4415888,6.33974267 30.6049605,5.90748749 30.6231129,5.31313661 L32.1297628,5.42120041 C32.1116104,6.3577533 31.8211718,7.04215734 31.2765996,7.49242315 C30.7138749,7.92467833 29.8788641,8.15881656 28.7534148,8.15881656 C27.6098131,8.15881656 26.7566499,7.9066677 26.1939252,7.42038062 C25.6312006,6.93409354 25.3589145,6.2496895 25.3589145,5.34915788 L25.3589145,2.84567995 C25.3589145,1.94514832 25.649353,1.24273365 26.2120776,0.738435936 C26.7748023,0.252148856 27.6279655,-3.05533376e-13 28.7897196,-3.05533376e-13 Z M39.9897556,0.108063795 L39.9897556,5.11501965 C39.9897556,5.74539179 40.1168224,6.19565761 40.3528037,6.48382773 C40.588785,6.77199785 41.0607477,6.91608291 41.7505392,6.91608291 C42.4403307,6.91608291 42.9122933,6.77199785 43.1482746,6.48382773 C43.3842559,6.19565761 43.5113228,5.72738116 43.5113228,5.11501965 L43.5113228,0.108063795 L45.0179727,0.108063795 L45.0179727,5.20507282 C45.0179727,6.17764697 44.763839,6.91608291 44.2555715,7.42038062 C43.7109993,7.9066677 42.8759885,8.15881656 41.7323868,8.15881656 C40.588785,8.15881656 39.7537743,7.9066677 39.2455068,7.42038062 C38.7372394,6.93409354 38.4831057,6.19565761 38.4831057,5.20507282 L38.4831057,0.108063795 L39.9897556,0.108063795 Z M3.24928109,0.0900531629 C3.90276779,0.0900531629 4.51994968,0.198116958 5.06452193,0.414244549 C5.60909418,0.63037214 6.04475198,0.972574159 6.35334292,1.42283997 L5.71800863,2.30536097 C5.39126528,1.96315895 5.0100647,1.69299946 4.59255931,1.53090377 C4.17505392,1.36880808 3.72124371,1.27875491 3.23112868,1.27875491 C2.77731848,1.27875491 2.3961179,1.36880808 2.14198418,1.53090377 C1.86969806,1.69299946 1.7426312,1.96315895 1.7426312,2.3233716 C1.7426312,2.66557362 1.90600288,2.89971185 2.21459382,3.04379691 C2.26602564,3.06781108 2.3270379,3.09232555 2.39746252,3.11725694 L2.63680539,3.19321845 L2.63680539,3.19321845 L2.93161395,3.27118114 L2.93161395,3.27118114 L3.28087973,3.35064472 L3.28087973,3.35064472 L3.68359427,3.43110889 L3.68359427,3.43110889 L4.1387491,3.51207335 C5.08267434,3.67416905 5.73616104,3.90830727 6.13551402,4.25050929 C6.51671459,4.57470067 6.71639109,5.07899839 6.71639109,5.72738116 C6.71639109,6.50183836 6.42595255,7.11419987 5.82692308,7.54645505 C5.2278936,7.92467833 4.41103523,8.14080593 3.35819554,8.14080593 C2.66840403,8.14080593 2.03306973,8.03274213 1.45219267,7.79860391 C0.8713156,7.56446568 0.381200575,7.20425303 -4.81703566e-12,6.68194469 L0.689791517,5.76340243 C1.05283968,6.17764697 1.45219267,6.48382773 1.90600288,6.68194469 C2.35981308,6.86205101 2.90438533,6.97011481 3.53971963,6.97011481 C4.06613947,6.97011481 4.48364486,6.88006165 4.75593098,6.68194469 C5.04636952,6.48382773 5.19158879,6.21366824 5.19158879,5.83544496 C5.19158879,5.49324294 5.04636952,5.25910471 4.73777858,5.09700902 C4.59750997,5.03151581 4.3934829,4.9623014 4.1239926,4.89274869 L3.76907278,4.80933957 C3.64021932,4.78162674 3.50078264,4.75407629 3.35065363,4.72690473 L2.86808052,4.64674321 C1.90600288,4.50265814 1.21621136,4.26851992 0.816858375,3.94432853 C0.417505392,3.62013715 0.2178289,3.11583944 0.2178289,2.46745666 C0.2178289,1.76504199 0.471962617,1.18870175 0.998382459,0.756446568 C1.5248023,0.306180754 2.26905104,0.0900531629 3.24928109,0.0900531629 Z M55.4737599,0.0900531629 C56.3087707,0.0900531629 56.9259526,0.270159489 57.3616104,0.648382773 C57.7972682,1.00859542 58.0150971,1.5489144 58.0150971,2.25132907 L58.0150971,2.91772248 C58.0150971,3.51207335 57.8698778,3.99836043 57.5612868,4.35857308 C57.2526959,4.71878574 56.7988857,4.95292396 56.1998562,5.06098775 L58.1966211,8.05075276 L56.4902948,8.05075276 L54.5298347,5.13303028 L53.0957944,5.13303028 L53.0957944,8.05075276 L51.6072969,8.05075276 L51.6072969,0.0900531629 L55.4737599,0.0900531629 Z M65.657261,0.0900531629 L65.657261,8.05075276 L64.1506111,8.05075276 L64.1506111,0.0900531629 L65.657261,0.0900531629 Z M78.2368799,0.108063795 L78.2368799,1.29676555 L75.7318476,1.29676555 L75.7318476,8.05075276 L74.2251977,8.05075276 L74.2251977,1.29676555 L71.7201653,1.29676555 L71.7201653,0.108063795 L78.2368799,0.108063795 Z M84.553918,0.0900531629 L86.6232926,3.81825411 L88.6745147,0.0900531629 L90.2174694,0.0900531629 L87.3312365,5.06098775 L87.3312365,8.05075276 L85.8245866,8.05075276 L85.8245866,5.06098775 L82.9383537,0.0900531629 L84.553918,0.0900531629 Z M18.8240474,0.0900531629 L18.8240474,1.27875491 L14.7216032,1.27875491 L14.7216032,3.16987133 L18.3339324,3.16987133 L18.3339324,4.35857308 L14.7216032,4.35857308 L14.7216032,6.84404038 L18.8240474,6.84404038 L18.8240474,8.03274213 L13.2149533,8.03274213 L13.2149533,0.0900531629 L18.8240474,0.0900531629 Z M55.2196262,1.31477618 L53.1139468,1.31477618 L53.1139468,3.94432853 L55.2196262,3.94432853 C55.6915888,3.94432853 56.0364845,3.872286 56.236161,3.71019031 C56.4358375,3.54809462 56.5265996,3.29594576 56.5265996,2.91772248 L56.5265996,2.30536097 C56.5265996,1.94514832 56.4358375,1.67498883 56.236161,1.53090377 C56.0364845,1.38681871 55.7097412,1.31477618 55.2196262,1.31477618 Z" transform="translate(57.652 31.645)"></path></g><path fill="url(#gps_horizontal_black-text_rgb-a)" d="M38.2471244,20.0458587 C38.319734,20.6762308 38.3741912,21.3246136 38.3741912,21.991007 C38.3741912,30.8522382 31.1132279,38.0384806 22.2003954,38.0384806 C13.2875629,38.0384806 6.02659957,30.8342276 6.02659957,21.991007 C6.02659957,13.1477864 13.2875629,5.94353336 22.2003954,5.94353336 C25.1229331,5.94353336 27.8820992,6.71799056 30.2419123,8.08679864 L36.0869878,4.86289541 C32.274982,1.8190985 27.4464414,3.9991638e-16 22.182243,3.9991638e-16 C9.96567218,-0.0179860221 3.6275799e-15,9.85184063 3.6275799e-15,21.991007 C3.6275799e-15,34.1301733 9.96567218,44 22.2003954,44 C34.4351186,44 44.3826384,34.1301733 44.3826384,21.991007 C44.3826384,19.1993589 43.8562185,16.5157747 42.8941409,14.048318 L38.2471244,20.0458587 Z"></path><polygon fill="#33F" points="46.162 3.602 37.575 14.805 28.191 27.376 13.741 30.096"></polygon><polygon fill="url(#gps_horizontal_black-text_rgb-b)" points="46.162 3.602 13.741 30.096 18.751 17.128"></polygon></svg>